<svg width="86" height="85" viewBox="0 0 86 85" fill="none" xmlns="http://www.w3.org/2000/svg">
<rect x="1.45947" y="0.527405" width="83.0812" height="83.9452" stroke="black"/>
<path d="M34.0936 57.5432L27.1413 71.4514C25.4024 74.5822 21.5774 75.6234 18.4465 73.8845C16.0134 72.1491 14.9686 69.0182 16.3605 66.2345L20.5326 57.5432M51.1326 43.9857V40.8549C51.1326 34.5932 46.6134 29.0328 40.7024 27.988C39.015 27.5052 37.226 27.5052 35.5386 27.988" stroke="#2E0711" stroke-width="3" stroke-miterlimit="10" stroke-linecap="round" stroke-linejoin="round"/>
<path d="M8.71042 57.5432L4.53834 66.238C3.29167 68.8447 4.19126 72.1491 6.62792 73.888C9.75521 75.6235 13.5802 74.5822 15.3192 71.4514L15.9213 70.3109M30.0596 47.2866H9.89334C9.35883 47.2794 8.83929 47.109 8.40439 46.7982C7.96949 46.4874 7.64004 46.051 7.46021 45.5476L4.0248 33.0384C3.68834 31.7741 4.67646 29.9005 6.41542 29.9005H23.1073C24.1485 29.9005 25.1933 30.5947 25.5404 31.6359L30.0596 47.2866ZM30.0596 47.2866H40.4933M61.6371 58.4109C59.8981 56.6755 58.8533 54.2389 58.8533 51.8057V41.3755L65.8092 44.8499H69.2835L76.2429 41.3755V51.8057C76.2429 54.2389 75.5452 56.3249 74.1533 57.7168L80.4115 66.7587C81.4563 68.4941 82.0406 70.6439 82.0406 72.7299V73.077C82.0406 76.902 79.0231 79.9726 75.1981 79.9726H54.3342M62.3313 58.4145V79.9726M38.6163 22.4099C40.9213 22.4099 43.132 21.4942 44.7619 19.8643C46.3918 18.2344 47.3075 16.0237 47.3075 13.7187C47.3075 11.4136 46.3918 9.20294 44.7619 7.57301C43.132 5.94309 40.9213 5.0274 38.6163 5.0274C36.3112 5.0274 34.1005 5.94309 32.4706 7.57301C30.8407 9.20294 29.925 11.4136 29.925 13.7187C29.925 16.0237 30.8407 18.2344 32.4706 19.8643C34.1005 21.4942 36.3112 22.4099 38.6163 22.4099Z" stroke="#2E0711" stroke-width="3" stroke-miterlimit="10" stroke-linecap="round" stroke-linejoin="round"/>
</svg>
