<svg width="106" height="85" viewBox="0 0 106 85" fill="none" xmlns="http://www.w3.org/2000/svg">
<g clip-path="url(#clip0_1_71)">
<path d="M31.875 4.25C31.875 3.12283 32.3228 2.04183 33.1198 1.2448C33.9168 0.447767 34.9978 0 36.125 0C37.2522 0 38.3332 0.447767 39.1302 1.2448C39.9272 2.04183 40.375 3.12283 40.375 4.25C40.375 5.37717 39.9272 6.45817 39.1302 7.2552C38.3332 8.05223 37.2522 8.5 36.125 8.5C34.9978 8.5 33.9168 8.05223 33.1198 7.2552C32.3228 6.45817 31.875 5.37717 31.875 4.25ZM25.5 6.375C26.6272 6.375 27.7082 6.82277 28.5052 7.6198C29.3022 8.41683 29.75 9.49783 29.75 10.625C29.75 11.7522 29.3022 12.8332 28.5052 13.6302C27.7082 14.4272 26.6272 14.875 25.5 14.875C24.3728 14.875 23.2918 14.4272 22.4948 13.6302C21.6978 12.8332 21.25 11.7522 21.25 10.625C21.25 9.49783 21.6978 8.41683 22.4948 7.6198C23.2918 6.82277 24.3728 6.375 25.5 6.375ZM21.25 17C23.6008 17 25.5 18.8992 25.5 21.25H26.5625C28.3289 21.25 29.75 22.6711 29.75 24.4375V26.5625C29.75 26.7883 29.7234 27.0141 29.6836 27.2398C37.2273 30.4938 42.5 38.0109 42.5 46.75C42.5 58.4906 32.9906 68 21.25 68C9.50937 68 0 58.4906 0 46.75C0 38.0109 5.27266 30.4938 12.8164 27.2398C12.7633 27.0273 12.75 26.8016 12.75 26.5625V24.4375C12.75 22.6711 14.1711 21.25 15.9375 21.25H17C17 18.8992 18.8992 17 21.25 17ZM21.25 59.5C22.9244 59.5 24.5823 59.1702 26.1292 58.5295C27.6761 57.8887 29.0817 56.9496 30.2656 55.7656C31.4496 54.5817 32.3887 53.1761 33.0295 51.6292C33.6702 50.0823 34 48.4244 34 46.75C34 45.0756 33.6702 43.4177 33.0295 41.8708C32.3887 40.3239 31.4496 38.9183 30.2656 37.7344C29.0817 36.5504 27.6761 35.6113 26.1292 34.9705C24.5823 34.3298 22.9244 34 21.25 34C19.5756 34 17.9177 34.3298 16.3708 34.9705C14.8239 35.6113 13.4183 36.5504 12.2344 37.7344C11.0504 38.9183 10.1113 40.3239 9.47054 41.8708C8.82979 43.4177 8.5 45.0756 8.5 46.75C8.5 48.4244 8.82979 50.0823 9.47054 51.6292C10.1113 53.1761 11.0504 54.5817 12.2344 55.7656C13.4183 56.9496 14.8239 57.8887 16.3708 58.5295C17.9177 59.1702 19.5756 59.5 21.25 59.5ZM46.75 46.75C46.75 43.3102 46.0727 40.043 44.8375 37.0414C47.082 32.6719 50.7875 29.1922 55.3164 27.2266C55.2633 27.0141 55.25 26.7883 55.25 26.5492V24.4242C55.25 22.6578 56.6711 21.2367 58.4375 21.2367H59.5C59.5 18.8859 61.3992 16.9867 63.75 16.9867C66.1008 16.9867 68 18.8859 68 21.2367H69.0625C70.8289 21.2367 72.25 22.6578 72.25 24.4242V26.5492C72.25 26.775 72.2234 27.0008 72.1836 27.2266C79.7273 30.4937 85 38.0109 85 46.75C85 58.4906 75.4906 68 63.75 68C55.5156 68 48.3703 63.3117 44.8375 56.4586C46.0727 53.4703 46.75 50.1898 46.75 46.75ZM76.5 46.75C76.5 43.3685 75.1567 40.1255 72.7656 37.7344C70.3745 35.3433 67.1315 34 63.75 34C60.3685 34 57.1255 35.3433 54.7344 37.7344C52.3433 40.1255 51 43.3685 51 46.75C51 50.1315 52.3433 53.3745 54.7344 55.7656C57.1255 58.1567 60.3685 59.5 63.75 59.5C67.1315 59.5 70.3745 58.1567 72.7656 55.7656C75.1567 53.3745 76.5 50.1315 76.5 46.75ZM48.875 0C50.0022 0 51.0832 0.447767 51.8802 1.2448C52.6772 2.04183 53.125 3.12283 53.125 4.25C53.125 5.37717 52.6772 6.45817 51.8802 7.2552C51.0832 8.05223 50.0022 8.5 48.875 8.5C47.7478 8.5 46.6668 8.05223 45.8698 7.2552C45.0728 6.45817 44.625 5.37717 44.625 4.25C44.625 3.12283 45.0728 2.04183 45.8698 1.2448C46.6668 0.447767 47.7478 0 48.875 0ZM59.5 6.375C60.6272 6.375 61.7082 6.82277 62.5052 7.6198C63.3022 8.41683 63.75 9.49783 63.75 10.625C63.75 11.7522 63.3022 12.8332 62.5052 13.6302C61.7082 14.4272 60.6272 14.875 59.5 14.875C58.3728 14.875 57.2918 14.4272 56.4948 13.6302C55.6978 12.8332 55.25 11.7522 55.25 10.625C55.25 9.49783 55.6978 8.41683 56.4948 7.6198C57.2918 6.82277 58.3728 6.375 59.5 6.375Z" fill="#2E0711"/>
</g>
<defs>
<clipPath id="clip0_1_71">
<rect width="85" height="68" fill="white"/>
</clipPath>
</defs>
</svg>
