<svg width="86" height="85" viewBox="0 0 86 85" fill="none" xmlns="http://www.w3.org/2000/svg">
<path d="M39.4584 70.2853C37.1702 70.2853 35.2361 69.4953 33.6562 67.9154C32.0762 66.3354 31.2862 64.4013 31.2862 62.1131C31.2862 59.8249 32.0762 57.8909 33.6562 56.3109C35.2361 54.731 37.1702 53.941 39.4584 53.941C41.7466 53.941 43.6806 54.731 45.2606 56.3109C46.8405 57.8909 47.6305 59.8249 47.6305 62.1131C47.6305 64.4013 46.8405 66.3354 45.2606 67.9154C43.6806 69.4953 41.7466 70.2853 39.4584 70.2853ZM39.4584 34.3279C43.5444 34.3279 47.4267 34.9817 51.1053 36.2892C54.7838 37.5968 58.1203 39.3946 61.1145 41.6828C62.2041 42.5 62.7631 43.5766 62.7914 44.9124C62.8198 46.2483 62.3425 47.4055 61.3597 48.384C60.4335 49.3101 59.2894 49.7874 57.9274 49.8157C56.5654 49.844 55.3395 49.4758 54.2499 48.7108C52.1797 47.2943 49.8915 46.1775 47.3853 45.3603C44.8792 44.5431 42.2369 44.1345 39.4584 44.1345C36.6798 44.1345 34.0375 44.5431 31.5314 45.3603C29.0253 46.1775 26.7371 47.2943 24.6668 48.7108C23.5772 49.4736 22.3514 49.8277 20.9894 49.7732C19.6273 49.7187 18.4832 49.2284 17.5571 48.3022C16.6309 47.3216 16.1678 46.1644 16.1678 44.8307C16.1678 43.497 16.7126 42.4205 17.8022 41.6011C20.7987 39.3129 24.1362 37.5281 27.8147 36.2467C31.4933 34.9653 35.3745 34.3257 39.4584 34.3279ZM39.4584 14.7148C46.2685 14.7148 52.6842 15.8316 58.7054 18.0654C64.7266 20.2991 70.1333 23.459 74.9254 27.545C76.015 28.4712 76.5871 29.6153 76.6416 30.9773C76.6961 32.3393 76.233 33.5107 75.2523 34.4913C74.3261 35.4175 73.182 35.8948 71.82 35.9231C70.458 35.9514 69.2322 35.5287 68.1426 34.6548C64.2199 31.4404 59.8211 28.9485 54.9462 27.1789C50.0712 25.4094 44.9086 24.5235 39.4584 24.5213C34.0081 24.5192 28.8466 25.405 23.9738 27.1789C19.101 28.9528 14.7012 31.4448 10.7742 34.6548C9.68457 35.5265 8.45875 35.9492 7.09673 35.9231C5.73471 35.8969 4.59061 35.4197 3.66444 34.4913C2.68378 33.5107 2.22069 32.3393 2.27518 30.9773C2.32966 29.6153 2.90171 28.4712 3.99132 27.545C8.78564 23.459 14.1934 20.2991 20.2146 18.0654C26.2359 15.8316 32.6504 14.7148 39.4584 14.7148Z" fill="#66142A"/>
</svg>
