<svg width="122" height="85" viewBox="0 0 122 85" fill="none" xmlns="http://www.w3.org/2000/svg">
<path d="M42.5 7.08331C35.1581 7.08331 24.3738 9.09144 22.2771 17.3258C20.4213 24.611 20.8533 29.8208 25.4788 36.0081L52.7248 72.4554C55.466 76.1246 56.8402 77.9556 58.696 77.9166C60.5519 77.8741 61.8375 75.9829 64.4088 72.2004L66.2823 69.445C69.4946 64.7169 71.1025 62.351 70.7944 59.7939C70.4863 57.2369 68.3648 55.3031 64.1183 51.4356L24.0833 14.1666" stroke="#2E0711" stroke-width="3" stroke-linecap="round" stroke-linejoin="round"/>
<path d="M42.5 7.08331C49.8419 7.08331 60.6262 9.09144 62.7229 17.3258C64.5787 24.611 64.1466 29.8208 59.5212 36.0081L54.6691 42.5M60.9166 14.1666L42.5 31.3119M42.5 58.7775L32.2716 72.4554C29.5304 76.1246 28.1633 77.9556 26.3039 77.9166C24.4481 77.8741 23.1625 75.9829 20.5912 72.2004L18.7177 69.445C15.5054 64.7169 13.8975 62.351 14.2021 59.7939C14.5066 57.2369 16.6352 55.3031 20.8816 51.4356L30.4796 42.5" stroke="#2E0711" stroke-width="3" stroke-linecap="round" stroke-linejoin="round"/>
<path d="M104.123 19.4644C103.673 18.2144 102.823 17.3145 101.74 16.8478C99.7896 16.0144 97.423 16.7144 95.573 18.4811C95.7563 17.9978 95.923 17.4811 96.073 16.9311C96.4896 14.6811 96.123 12.4311 95.0396 10.9144C94.323 9.88112 93.2896 9.23112 92.1396 9.04778C89.573 8.68112 87.023 10.8478 85.9563 14.0478C84.8896 10.7978 82.3063 8.64778 79.723 9.04778C78.573 9.24778 77.5396 9.93112 76.823 10.9811C75.7563 12.5311 75.423 14.6978 75.8896 16.9478C75.973 17.3811 76.073 17.7811 76.223 18.1644C74.4063 16.6478 72.2396 16.0478 70.4063 16.8478C69.3063 17.3311 68.473 18.2645 68.023 19.4978C67.3963 21.2311 67.6063 23.3478 68.573 25.3311C69.973 28.0478 72.4396 29.7311 74.7563 29.7311C75.3563 29.7311 75.9563 29.6145 76.523 29.3811C77.623 28.8978 78.473 27.9645 78.923 26.7645C79.4563 25.3645 79.4063 23.6645 78.8063 21.9811C79.723 22.6978 80.7563 23.1311 81.823 23.1311C82.023 23.1311 82.2396 23.1144 82.4396 23.0811C83.573 22.9144 84.6063 22.2478 85.323 21.2145C85.573 20.8478 85.7896 20.4478 85.9563 20.0145C86.123 20.4478 86.323 20.8478 86.573 21.1978C87.2896 22.2311 88.323 22.8978 89.473 23.0811C89.673 23.1144 89.8896 23.1311 90.0896 23.1311C91.2896 23.1311 92.4563 22.5811 93.4563 21.6644C92.7396 23.4478 92.673 25.2645 93.223 26.7645C93.673 27.9811 94.523 28.8978 95.623 29.3811C96.1896 29.6145 96.7896 29.7311 97.4063 29.7311C99.7063 29.7311 102.173 28.0478 103.573 25.3311C104.54 23.3478 104.756 21.2144 104.123 19.4644ZM75.8063 25.5978C75.6063 26.1478 75.2896 26.2811 75.1896 26.3144C74.273 26.7144 72.5396 25.7144 71.573 23.8311C70.9063 22.4811 70.923 21.2978 71.1563 20.6144C71.2896 20.2644 71.4896 20.0145 71.7396 19.8811C71.9063 19.8811 72.0396 19.8145 72.2063 19.8145C73.173 19.8145 74.573 20.7644 75.4063 22.3811C75.9563 23.5145 76.123 24.7645 75.8063 25.5978ZM82.5896 19.3145C82.3896 19.5811 82.173 19.7478 81.9063 19.7811C81.073 19.8811 79.6396 18.5978 79.1563 16.2811C78.823 14.6811 79.1563 13.4811 79.573 12.8644C79.773 12.5811 80.0063 12.3811 80.2396 12.3811C81.073 12.2311 82.5396 13.5311 83.0063 15.8811C83.3396 17.4978 83.0063 18.7144 82.5896 19.3145ZM92.7396 16.2645C92.273 18.5978 90.7896 19.8811 89.973 19.7811C89.873 19.7644 89.6063 19.7311 89.3063 19.2978C88.8896 18.6978 88.573 17.4978 88.9063 15.8811C89.3563 13.6478 90.7396 12.3811 91.5563 12.3811H91.673C91.9063 12.3811 92.123 12.5644 92.323 12.8311C92.8563 13.5978 93.0396 14.9478 92.7396 16.2645ZM100.573 23.8311C99.6063 25.7144 97.873 26.7144 96.9563 26.3144C96.8563 26.2811 96.5396 26.1478 96.3396 25.5978C96.073 24.7645 96.1896 23.5145 96.723 22.3811C97.573 20.7811 98.9896 19.8311 99.9563 19.8311C100.123 19.8311 100.24 19.8811 100.406 19.8811H100.423C100.673 20.0145 100.856 20.2478 100.99 20.6144C101.24 21.2811 101.256 22.4811 100.573 23.8311ZM93.2396 29.8811C90.9896 27.4644 89.223 23.1144 85.8896 23.1144C82.5396 23.1144 80.873 27.5311 78.523 29.8811C76.7563 31.6978 73.773 33.0311 73.473 35.5144C73.2563 37.3144 74.4063 39.4811 76.073 40.2978C76.6563 40.5978 77.273 40.7145 77.9063 40.7145C80.423 40.7145 83.2396 38.8311 85.8896 38.8311C88.573 38.8311 91.373 40.6644 93.923 40.6644C94.5396 40.6644 95.1396 40.5645 95.723 40.2978C97.1563 39.6478 98.3563 37.9144 98.2896 36.3478C98.173 33.6311 95.0896 31.9144 93.2396 29.8811ZM94.3396 37.2645C94.2071 37.3161 94.065 37.3388 93.923 37.3311C93.223 37.3311 92.123 36.9645 91.073 36.6145C89.5396 36.0978 87.7896 35.4978 85.8896 35.4978C83.9896 35.4978 82.2396 36.1144 80.7063 36.6478C79.6563 36.9978 78.573 37.3811 77.9063 37.3811C77.6896 37.3811 77.6063 37.3811 77.5396 37.2978C77.173 37.1145 76.7396 36.3311 76.7896 35.9145C76.9063 35.5311 78.123 34.5644 78.723 34.0478C79.4563 33.5145 80.2396 32.9311 80.8896 32.2311C81.8063 31.3144 82.5563 30.2645 83.2896 29.2478C84.0396 28.2144 85.2896 26.4478 85.8896 26.4478C86.5563 26.4478 87.873 28.3144 88.673 29.4144C89.323 30.3478 90.0063 31.2978 90.773 32.1311C91.423 32.8311 92.1063 33.4478 92.7396 34.0478C93.6396 34.7978 94.9396 35.9478 94.9563 36.4478C94.9396 36.6811 94.6063 37.1478 94.3396 37.2645Z" fill="#2E0711"/>
</svg>
