<svg width="141" height="85" viewBox="0 0 141 85" fill="none" xmlns="http://www.w3.org/2000/svg">
<path d="M49.3967 72.9286H19.3434C17.6128 72.9279 15.9533 72.24 14.7298 71.016C13.5064 69.792 12.819 68.1323 12.819 66.4017V37.4539C6.70037 37.2105 3.0312 30.4173 6.30227 25.138L8.2142 22.0545C8.937 20.8871 9.94595 19.9236 11.1454 19.2553C12.3449 18.587 13.6951 18.2361 15.0682 18.2358H20.5251V15.8243C20.5251 14.8294 20.9201 13.8752 21.6234 13.1715C22.3266 12.4678 23.2805 12.0721 24.2754 12.0714C26.7418 12.0735 29.1065 13.0545 30.85 14.7989C32.5935 16.5434 33.5732 18.9086 33.5739 21.375V34.5227C38.4348 34.9968 42.104 37.2993 44.7995 40.5348C47.7764 44.1102 49.5286 48.7708 50.5733 53.2464C51.6206 57.7473 51.9933 62.2177 52.1023 65.5446C52.1424 66.7376 52.1534 67.9314 52.1353 69.125H54.6406C56.1014 69.1243 57.5302 68.697 58.7514 67.8954C59.9727 67.0939 60.9332 65.953 61.5149 64.6131C62.0967 63.2731 62.2744 61.7924 62.0262 60.3528C61.778 58.9133 61.1147 57.5776 60.1177 56.5098L56.6184 52.757C54.206 50.1699 52.8921 46.7474 52.9536 43.2106C53.0151 39.6738 54.4472 36.2991 56.9481 33.7974L60.3789 30.3615C60.553 30.1747 60.763 30.0248 60.9963 29.9209C61.2295 29.8169 61.4814 29.7611 61.7367 29.7565C61.9921 29.752 62.2457 29.799 62.4825 29.8947C62.7193 29.9903 62.9345 30.1327 63.115 30.3133C63.2956 30.4939 63.438 30.709 63.5337 30.9458C63.6293 31.1826 63.6763 31.4362 63.6718 31.6916C63.6673 31.9469 63.6114 32.1988 63.5074 32.4321C63.4035 32.6653 63.2536 32.8753 63.0668 33.0494L59.6309 36.4878C57.8265 38.2915 56.7933 40.7256 56.7493 43.2765C56.7053 45.8274 57.6539 48.2956 59.3951 50.1604L62.8943 53.9133C64.3947 55.5232 65.3926 57.5359 65.7657 59.7046C66.1389 61.8734 65.871 64.1039 64.995 66.1227C64.119 68.1414 62.673 69.8607 60.8342 71.0696C58.9954 72.2785 56.8437 72.9246 54.6431 72.9286H49.3967ZM24.3261 15.875V20.1401C24.3261 21.1924 23.4767 22.0419 22.4243 22.0419H15.0708C13.5924 22.0419 12.2232 22.8051 11.4447 24.0603L9.5353 27.1463C7.77298 29.9863 9.81423 33.6605 13.1588 33.6605H14.7208C15.2252 33.6605 15.709 33.8609 16.0656 34.2175C16.4223 34.5742 16.6226 35.0579 16.6226 35.5623V66.4017C16.6226 67.9053 17.8398 69.125 19.3434 69.125H22.0668V66.4017C22.0661 64.9373 22.354 63.4871 22.9138 62.1339C23.4737 60.7808 24.2946 59.5512 25.3297 58.5154C26.3649 57.4795 27.5939 56.6578 28.9467 56.097C30.2994 55.5362 31.7494 55.2474 33.2138 55.2471H37.0681C37.5725 55.2471 38.0562 55.4474 38.4129 55.8041C38.7695 56.1607 38.9699 56.6445 38.9699 57.1488C38.9699 57.6532 38.7695 58.1369 38.4129 58.4936C38.0562 58.8503 37.5725 59.0506 37.0681 59.0506H33.2138C29.1567 59.0506 25.8678 62.342 25.8678 66.4017V69.125H48.3343C48.3532 67.9729 48.3431 66.8205 48.3038 65.6688C48.1973 62.489 47.8449 58.2848 46.8712 54.1111C45.8924 49.9144 44.3202 45.9004 41.8783 42.9717C39.4948 40.1088 36.2567 38.2349 31.6721 38.2349C31.4223 38.2349 31.175 38.1858 30.9443 38.0902C30.7136 37.9946 30.5039 37.8545 30.3273 37.6779C30.1507 37.5013 30.0106 37.2917 29.9151 37.0609C29.8195 36.8302 29.7703 36.5829 29.7703 36.3332V21.3724C29.7703 18.3549 27.3386 15.9029 24.3261 15.875Z" fill="#2E0711"/>
<path d="M95.2275 10.1745C93.4595 8.8995 91.4025 8.5 90 8.5H83.8545C81.9293 8.49984 80.0401 9.0228 78.389 10.013L70.8113 14.5605C70.1827 14.9382 69.6625 15.4721 69.3013 16.1103C68.9401 16.7486 68.7502 17.4694 68.75 18.2028V23.375C68.75 25.0658 69.4217 26.6873 70.6172 27.8828C71.8128 29.0784 73.4343 29.75 75.125 29.75H77.25V63.9115C75.4608 64.1878 73.6673 64.855 72.1713 66.1003C70.0038 67.9023 68.75 70.6775 68.75 74.375C68.75 74.9386 68.9739 75.4791 69.3724 75.8776C69.7709 76.2761 70.3114 76.5 70.875 76.5H119.75C122.425 76.5003 125.032 75.6593 127.203 74.096C129.373 72.5328 130.997 70.3264 131.845 67.7893C132.692 65.2522 132.72 62.5128 131.925 59.9588C131.129 57.4049 129.551 55.1658 127.413 53.5585C126.962 53.2331 126.401 53.0975 125.851 53.1809C125.301 53.2643 124.806 53.56 124.471 54.0045C124.137 54.449 123.99 55.0069 124.063 55.5584C124.135 56.1099 124.421 56.6111 124.859 56.9543C126.285 58.0256 127.337 59.5184 127.868 61.2213C128.399 62.9242 128.38 64.7509 127.815 66.4426C127.25 68.1344 126.167 69.6056 124.72 70.6478C123.272 71.6901 121.534 72.2506 119.75 72.25C118.526 72.25 117.753 71.9525 117.243 71.6125C116.736 71.2673 116.332 70.7915 116.074 70.2355C115.727 69.539 115.532 68.7772 115.5 68V67.8088L115.483 67.3413C115.466 66.9333 115.424 66.3737 115.356 65.6625C115.164 63.7702 114.837 61.894 114.378 60.0482C113.26 55.5858 110.995 49.8652 106.38 45.2455C98.5425 37.4128 98.5 26.9067 98.5 23.375V17C98.5 13.7572 97.0975 11.526 95.2275 10.1745ZM94.573 29.325C95.2318 34.663 97.2463 42.126 103.371 48.2545C107.255 52.1348 109.24 57.0392 110.251 61.0768C110.779 63.1936 111.109 65.3547 111.237 67.5325L111.25 67.9023V68.1403L111.267 68.425C111.356 69.7593 111.717 71.0611 112.33 72.25H86.0943C86.5193 70.89 87.382 69.4917 88.8653 68.714C89.8757 68.2089 90.996 67.9636 92.125 68H96.375C96.9386 68 97.4791 67.7761 97.8776 67.3776C98.2762 66.9791 98.5 66.4386 98.5 65.875C98.5 65.3114 98.2762 64.7709 97.8776 64.3724C97.4791 63.9739 96.9386 63.75 96.375 63.75H92.125C91.377 63.75 90.6687 63.8067 90 63.92V53.125C90 52.5614 89.7762 52.0209 89.3776 51.6224C88.9791 51.2239 88.4386 51 87.875 51C87.3114 51 86.7709 51.2239 86.3724 51.6224C85.9739 52.0209 85.75 52.5614 85.75 53.125V65.654C83.285 67.4305 82.1503 70.074 81.721 72.25H73.221C73.5398 70.856 74.1773 69.9593 74.8913 69.3685C75.9835 68.4548 77.5688 68 79.375 68C79.9386 68 80.4791 67.7761 80.8776 67.3776C81.2762 66.9791 81.5 66.4386 81.5 65.875V27.625C81.5 27.0614 81.2762 26.5209 80.8776 26.1224C80.4791 25.7239 79.9386 25.5 79.375 25.5H75.125C74.5614 25.5 74.0209 25.2761 73.6224 24.8776C73.2239 24.4791 73 23.9386 73 23.375V18.2028L80.5735 13.6553C81.5649 13.0617 82.699 12.7488 83.8545 12.75H90C90.7225 12.75 91.853 12.9838 92.7413 13.6255C93.5275 14.1865 94.25 15.1427 94.25 17V23.375C94.25 23.7448 94.1225 24.344 93.7995 24.7903C93.5573 25.1303 93.1323 25.5 92.125 25.5C91.1178 25.5 90.6928 25.126 90.4505 24.7903C90.1633 24.3737 90.0064 23.881 90 23.375C90 22.8114 89.7762 22.2709 89.3776 21.8724C88.9791 21.4739 88.4386 21.25 87.875 21.25C87.3114 21.25 86.7709 21.4739 86.3724 21.8724C85.9739 22.2709 85.75 22.8114 85.75 23.375C85.75 24.4248 86.0475 25.9505 86.9995 27.2722C88.0323 28.7045 89.7323 29.75 92.125 29.75C92.9602 29.7599 93.7901 29.6158 94.573 29.325Z" fill="#2E0711"/>
</svg>
