<svg width="85" height="85" viewBox="0 0 85 85" fill="none" xmlns="http://www.w3.org/2000/svg">
<path d="M70.8334 56.6667V35.4167H77.9167V56.6667C77.9167 58.5453 77.1704 60.347 75.842 61.6754C74.5137 63.0037 72.712 63.75 70.8334 63.75H28.3334C26.4548 63.75 24.6531 63.0037 23.3247 61.6754C21.9963 60.347 21.25 58.5453 21.25 56.6667V14.1667C21.25 10.2354 24.4021 7.08334 28.3334 7.08334H56.6667V14.1667H28.3334V56.6667H70.8334ZM38.6396 25.075L49.5834 36.0188L72.923 12.6792L77.9167 17.7083L49.5834 46.0417L33.6459 30.1042L38.6396 25.075ZM56.6667 70.8333V77.9167H14.1667C12.2881 77.9167 10.4864 77.1704 9.15803 75.842C7.82965 74.5136 7.08337 72.712 7.08337 70.8333V24.7917H14.1667V70.8333H56.6667Z" fill="#2E0711"/>
</svg>
