<svg width="86" height="85" viewBox="0 0 86 85" fill="none" xmlns="http://www.w3.org/2000/svg">
<path d="M42.9999 74.375V42.5M42.9999 24.7917H28.6562C18.8458 24.7917 18.2437 10.625 28.6562 10.625C39.8124 10.625 42.9999 24.7917 42.9999 24.7917ZM42.9999 24.7917H57.3437C67.6004 24.7917 67.6004 10.625 57.3437 10.625C46.1874 10.625 42.9999 24.7917 42.9999 24.7917Z" stroke="#2E0711" stroke-width="3" stroke-linecap="round" stroke-linejoin="round"/>
<path d="M71.3333 42.5V67.2917C71.3333 69.1703 70.5871 70.9719 69.2587 72.3003C67.9303 73.6287 66.1286 74.375 64.25 74.375H21.75C19.8714 74.375 18.0697 73.6287 16.7413 72.3003C15.4129 70.9719 14.6667 69.1703 14.6667 67.2917V42.5M74.875 42.5V31.875C74.875 29.9964 74.1287 28.1947 72.8003 26.8663C71.472 25.5379 69.6703 24.7917 67.7917 24.7917H18.2083C16.3297 24.7917 14.528 25.5379 13.1997 26.8663C11.8713 28.1947 11.125 29.9964 11.125 31.875V42.5H74.875Z" stroke="#2E0711" stroke-width="3" stroke-linecap="round" stroke-linejoin="round"/>
</svg>
