<svg width="86" height="85" viewBox="0 0 86 85" fill="none" xmlns="http://www.w3.org/2000/svg">
<path d="M77.0796 13.7328C75.054 11.8005 72.362 10.7224 69.5625 10.7224C66.7629 10.7224 64.0709 11.8005 62.0453 13.7328L1.40308 74.375H25.9734C29.489 74.3743 32.8609 72.9797 35.3499 70.4969L77.0796 28.7672C78.0675 27.7804 78.8512 26.6086 79.3859 25.3188C79.9206 24.0289 80.1958 22.6463 80.1958 21.25C80.1958 19.8537 79.9206 18.4711 79.3859 17.1813C78.8512 15.8914 78.0675 14.7196 77.0796 13.7328ZM33.1453 50.15L38.6968 44.5985L46.214 52.1156L40.6624 57.6672L33.1453 50.15ZM31.6046 66.725C30.1116 68.2199 28.0861 69.0607 25.9734 69.0625H14.2328L29.4 53.8953L36.9171 61.4125L31.6046 66.725ZM73.3078 24.9953L49.9593 48.3703L42.4421 40.8531L65.8171 17.5047C66.8125 16.5153 68.159 15.9599 69.5625 15.9599C70.9659 15.9599 72.3124 16.5153 73.3078 17.5047C74.2972 18.5001 74.8526 19.8465 74.8526 21.25C74.8526 22.6535 74.2972 24 73.3078 24.9953Z" fill="#66142A"/>
</svg>
